# xmcd
#
# Track frame offsets:
#	150
#	13670
#	26774
#	37401
#	52988
#	70468
#	86638
#	99508
#	119319
#	138589
#	160194
#
# Disc length: 2373 seconds
#
# Revision: 0
# Processed by: cddbd v1.5.2PL0 Copyright (c) Steve Scherf et al.
# Submitted via: EasyCDDAExtractor 12.0.1.1
#
DISCID=9809430b
DTITLE=Kingfish
DYEAR=1976
DGENRE=Classic Rock
TTITLE0=Lazy Lightnin
TTITLE1=Supplication
TTITLE2=Wild Northland
TTITLE3=Asia Minor
TTITLE4=Home to Dixie
TTITLE5=Jump For Joy
TTITLE6=Good Bye Yer Honor
TTITLE7=Big Iron
TTITLE8=This Time
TTITLE9=Hypnotize
TTITLE10=Bye and Bye
EXTD=
EXTT0=
EXTT1=
EXTT2=
EXTT3=
EXTT4=
EXTT5=
EXTT6=
EXTT7=
EXTT8=
EXTT9=
EXTT10=
PLAYORDER=
